<svg xmlns="http://www.w3.org/2000/svg" viewBox="2715.98 440.12 5312.23 6609.9">
  <g fill="#fff">
    <path d="M4979 7021 c-29 -29 -29 -29 -29 -364 0 -334 0 -334 -82 -341 -179 -14 -442 -70 -617 -130 -41 -15 -80 -26 -88 -26 -10 0 -13 61 -13 321 0 321 0 321 -29 350 -29 28 -32 29 -130 29 -101 0 -101 0 -101 -77 0 -91 -7 -106 -46 -101 -29 3 -29 3 -32 91 -3 87 -3 87 -92 87 -80 0 -92 -3 -117 -24 -28 -24 -28 -24 -33 -494 -5 -470 -5 -470 -88 -548 -131 -122 -254 -288 -345 -470 -59 -116 -95 -281 -103 -474 -13 -274 52 -474 225 -697 191 -248 433 -419 723 -512 359 -114 667 -67 903 138 212 184 339 246 601 292 152 26 408 28 498 4 162 -43 297 -159 380 -328 89 -182 129 -383 130 -670 1 -153 3 -176 16 -171 198 81 431 109 521 63 68 -34 89 -128 49 -216 -89 -198 -320 -415 -600 -566 -85 -46 -270 -125 -345 -147 -34 -10 -45 -21 -75 -73 -45 -79 -213 -249 -305 -309 -259 -167 -547 -240 -767 -193 -152 32 -268 96 -389 215 -147 145 -253 331 -344 605 -53 161 -96 248 -163 331 -192 238 -530 326 -895 233 -107 -27 -150 -50 -225 -123 -163 -156 -255 -400 -256 -681 -1 -333 127 -632 383 -898 171 -177 372 -321 615 -441 524 -258 1111 -328 1786 -211 370 65 579 124 773 221 760 382 1382 1137 1626 1977 83 283 120 532 128 857 8 345 -24 603 -111 906 -109 380 -314 737 -580 1013 -80 83 -245 221 -304 257 -31 18 -31 18 -34 550 -4 643 13 584 -170 584 -118 0 -118 0 -118 -89 0 -80 -2 -90 -20 -96 -10 -3 -28 -1 -40 5 -18 9 -20 20 -20 95 0 85 0 85 -105 85 -114 0 -133 -8 -155 -66 -6 -14 -10 -177 -10 -380 0 -195 -4 -354 -8 -354 -4 0 -45 16 -90 35 -167 70 -376 131 -605 174 -59 12 -110 21 -113 21 -2 0 -4 155 -4 345 0 363 -3 393 -45 409 -9 3 -61 6 -115 6 -99 0 -99 0 -102 -81 -2 -65 -7 -84 -20 -93 -13 -8 -23 -8 -35 0 -14 9 -19 28 -21 93 -3 81 -3 81 -98 81 -92 0 -97 -1 -125 -29z"/>
    <path d="M5426 2979 c-112 -32 -180 -158 -180 -334 0 -164 61 -301 164 -375 28 -20 28 -20 23 52 -11 148 26 311 76 338 11 5 40 10 64 10 36 0 57 -8 103 -39 57 -39 59 -39 62 -17 5 35 -24 157 -49 212 -53 111 -170 180 -263 153z"/>
    <path d="M6082 2891 c-42 -31 -84 -86 -121 -158 -11 -23 -21 -44 -21 -45 0 -2 27 -1 60 0 69 4 104 -12 121 -56 14 -36 -4 -127 -42 -210 -29 -64 -29 -64 -1 -57 67 16 152 67 199 119 54 59 73 107 73 187 0 107 -32 171 -108 220 -61 38 -106 38 -160 0z"/>
  </g>
</svg>